<svg width="20" height="20" viewBox="0 0 20 20" fill="none" xmlns="http://www.w3.org/2000/svg">
<path d="M9.12533 10.5834L7.91699 9.39587C7.76421 9.24309 7.57338 9.1667 7.34449 9.1667C7.1156 9.1667 6.91755 9.25003 6.75033 9.4167C6.59755 9.56948 6.52116 9.76392 6.52116 10C6.52116 10.2361 6.59755 10.4306 6.75033 10.5834L8.54199 12.375C8.70866 12.5417 8.9031 12.625 9.12533 12.625C9.34755 12.625 9.54199 12.5417 9.70866 12.375L13.2503 8.83337C13.417 8.6667 13.4967 8.47225 13.4895 8.25003C13.4823 8.02781 13.4025 7.83337 13.2503 7.6667C13.0837 7.50003 12.8859 7.41337 12.657 7.4067C12.4281 7.40003 12.23 7.47975 12.0628 7.64587L9.12533 10.5834ZM6.79199 18.125L5.58366 16.0834L3.29199 15.5834C3.08366 15.5417 2.91699 15.4342 2.79199 15.2609C2.66699 15.0875 2.61838 14.8964 2.64616 14.6875L2.87533 12.3334L1.31283 10.5417C1.17394 10.3889 1.10449 10.2084 1.10449 10C1.10449 9.7917 1.17394 9.61114 1.31283 9.45837L2.87533 7.6667L2.64616 5.31253C2.61838 5.1042 2.66699 4.91309 2.79199 4.7392C2.91699 4.56531 3.08366 4.45781 3.29199 4.4167L5.58366 3.9167L6.79199 1.87503C6.9031 1.69448 7.05588 1.57281 7.25033 1.51003C7.44477 1.44725 7.63921 1.45781 7.83366 1.5417L10.0003 2.45837L12.167 1.5417C12.3614 1.45837 12.5559 1.44781 12.7503 1.51003C12.9448 1.57225 13.0975 1.69392 13.2087 1.87503L14.417 3.9167L16.7087 4.4167C16.917 4.45837 17.0837 4.56614 17.2087 4.74003C17.3337 4.91392 17.3823 5.10475 17.3545 5.31253L17.1253 7.6667L18.6878 9.45837C18.8267 9.61114 18.8962 9.7917 18.8962 10C18.8962 10.2084 18.8267 10.3889 18.6878 10.5417L17.1253 12.3334L17.3545 14.6875C17.3823 14.8959 17.3337 15.087 17.2087 15.2609C17.0837 15.4348 16.917 15.5423 16.7087 15.5834L14.417 16.0834L13.2087 18.125C13.0975 18.3056 12.9448 18.4273 12.7503 18.49C12.5559 18.5528 12.3614 18.5423 12.167 18.4584L10.0003 17.5417L7.83366 18.4584C7.63921 18.5417 7.44477 18.5523 7.25033 18.49C7.05588 18.4278 6.9031 18.3061 6.79199 18.125Z" fill="#179CF0"/>
</svg>
