<svg width="219" height="219" viewBox="0 0 219 219" fill="none" xmlns="http://www.w3.org/2000/svg">
<path d="M64.7308 86.4469C67.0515 82.4274 70.8738 79.4944 75.3569 78.2931C79.8401 77.0919 84.6168 77.7208 88.6363 80.0414C92.6557 82.3621 95.5887 86.1844 96.79 90.6675C97.9912 95.1507 97.3623 99.9274 95.0417 103.947C92.7211 107.966 88.8987 110.899 84.4156 112.101C79.9325 113.302 75.1557 112.673 71.1363 110.352C67.1168 108.032 64.1838 104.209 62.9825 99.7262C61.7813 95.243 62.4102 90.4663 64.7308 86.4469ZM109.372 89.1263C111.029 86.2553 113.76 84.1603 116.962 83.3023C120.164 82.4442 123.576 82.8934 126.447 84.551C129.318 86.2086 131.413 88.9389 132.271 92.1411C133.129 95.3433 132.68 98.7553 131.022 101.626C129.365 104.497 126.635 106.592 123.432 107.45C120.23 108.308 116.818 107.859 113.947 106.202C111.076 104.544 108.981 101.814 108.123 98.6116C107.265 95.4093 107.714 91.9974 109.372 89.1263ZM90.3109 52.1408C91.637 49.8439 93.8212 48.1679 96.383 47.4815C98.9448 46.7951 101.674 47.1544 103.971 48.4805C106.268 49.8066 107.944 51.9908 108.63 54.5526C109.317 57.1144 108.958 59.8439 107.631 62.1408C106.305 64.4376 104.121 66.1136 101.559 66.8C98.9976 67.4865 96.268 67.1271 93.9712 65.801C91.6743 64.4749 89.9984 62.2908 89.3119 59.729C88.6255 57.1672 88.9849 54.4376 90.3109 52.1408Z" fill="#F2F2F2"/>
<path d="M22.6243 141.418C23.421 144.036 24.8155 146.433 26.6976 148.42C28.5798 150.406 30.8981 151.928 33.4693 152.864C35.9893 153.799 38.8093 154.775 41.8804 155.746C66.5072 163.521 108.446 171.13 153.337 154.277C155.79 153.361 158.25 152.368 160.715 151.297C165.568 149.192 168.947 145.311 170.601 140.816C171.579 138.112 171.952 135.226 171.693 132.362C171.434 129.498 170.55 126.726 169.102 124.241L114.649 29.9866C106.941 16.6569 87.6984 16.6667 80.0059 29.9905L24.4659 126.189C23.1286 128.464 22.2749 130.991 21.958 133.612C21.6412 136.232 21.868 138.889 22.6243 141.418ZM149.758 144.936C107.786 160.674 68.3517 153.616 44.8923 146.209C42.2224 145.367 39.5738 144.46 36.9487 143.488C34.4616 142.566 32.8661 140.709 32.182 138.484C31.5059 136.275 31.7186 133.626 33.1261 131.189L39.2011 120.666C76.5146 140.218 119.823 138.196 154.285 118.585L160.442 129.241C161.155 130.456 161.593 131.812 161.726 133.214C161.859 134.616 161.684 136.031 161.212 137.358C160.454 139.42 158.955 141.136 156.779 142.096L149.758 144.936ZM44.2061 111.997L88.6661 34.9905C92.5161 28.3221 102.133 28.3259 105.987 34.9907L149.279 109.926C117.819 127.807 78.3085 129.7 44.2061 111.997Z" fill="#F2F2F2"/>
</svg>
